<svg xmlns="http://www.w3.org/2000/svg" id="plaid-logo" enable-background="new -1506.8 1354 120.3 46" viewBox="-1506.8 1354 120.3 46" width="120.3" height="46">

<g>
    <linearGradient id="security-page-gradient" gradientUnits="userSpaceOnUse" x1="-2" y1="-5.0462" x2="30.8379" y2="30.8379">
    <stop style="stop-color:#dc5b33" offset="0" />
    <stop style="stop-color:#74B3A7" offset="1" />
    </linearGradient>
    <linearGradient id="a" gradientUnits="userSpaceOnUse" gradientTransform="translate(0 1204)" x1="-1496.79" y1="156.976" x2="-1460.04" y2="200.476"><stop stop-color="#428fad" offset="0.2" /><stop stop-color="#489990" offset="1" /></linearGradient>
    <path id="plaid-mark" fill="url(#a)" d="M -1466.1 1377.1 l 4.7 -4.7 l -3.6 -13.6 l -13.5 -3.6 l -4.7 4.7 l -4.7 -4.7 l -13.5 3.6 l -3.7 13.5 l 4.7 4.7 l -4.7 4.7 l 3.6 13.5 l 13.5 3.6 l 4.7 -4.7 l 4.7 4.7 l 13.6 -3.5 l 3.6 -13.5 l -4.7 -4.7 Z m 0.4 5.8 l -1.9 7.1 l -5.7 -5.7 l 4.5 -4.5 l 3.1 3.1 Z m -20.2 -5.9 l -4.5 4.5 l -4.6 -4.4 l 4.5 -4.5 l 4.6 4.4 Z m -1.8 -7.2 l 4.5 -4.5 l 4.5 4.5 l -4.5 4.5 l -4.5 -4.5 Z m 4.5 10 l 4.5 4.5 l -4.5 4.5 l -4.5 -4.5 l 4.5 -4.5 Z m 2.7 -2.8 l 4.5 -4.5 l 4.5 4.5 l -4.5 4.6 l -4.5 -4.6 Z m 11.7 -2.7 l -4.5 -4.5 l 5.7 -5.7 l 1.9 7.1 l -3.1 3.1 Z m -8.6 -14.8 l 7.1 1.9 l -5.7 5.7 l -4.5 -4.5 l 3.1 -3.1 Z m -8.5 3.1 l -4.5 4.5 l -5.8 -5.7 l 7.1 -1.9 l 3.2 3.1 Z m -14.9 8.6 l 1.9 -7.1 l 5.7 5.7 l -4.5 4.5 l -3.1 -3.1 Z m 3.1 8.6 l 4.5 4.5 l -5.7 5.7 l -1.9 -7.1 l 3.1 -3.1 Z m 8.6 14.8 l -7.1 -1.9 l 5.7 -5.7 l 4.5 4.5 l -3.1 3.1 Z m 8.6 -3.1 l 4.5 -4.5 l 5.7 5.7 l -7.1 1.9 l -3.1 -3.1 Z" />
</g>

<g id="logo-type" fill="#fff"><path d="M -1444 1378.6 c -1.4 1.2 -2.9 1.4 -4.8 1.4 h -1.8 v 5.1 h -4 v -16.3 h 5.4 c 1.7 0 3.7 0.1 5.1 1.2 c 1.3 1.1 1.9 2.7 1.9 4.3 c 0 1.5 -0.6 3.3 -1.8 4.3 Z m -5 -6.2 h -1.6 v 3.9 h 1.7 c 1.4 0 2.6 -0.3 2.6 -2 c 0.1 -1.6 -1.3 -1.9 -2.7 -1.9 Z M -1439.7 1385.2 v -16.4 h 4.2 v 12.7 h 4.9 v 3.7 h -9.1 Z M -1417 1385.2 l -0.8 -2.4 h -5.7 l -0.9 2.4 h -4.5 l 6.6 -16.4 h 3.3 l 6.5 16.4 h -4.5 Z m -3.6 -11.3 l -1.8 5.6 h 3.4 l -1.6 -5.6 Z M -1410.1 1385.2 v -16.4 h 4.2 v 16.4 h -4.2 Z M -1396.7 1385.2 h -5.7 v -16.4 h 5.4 c 3 0 5.4 0.5 7.3 3.1 c 1.1 1.5 1.5 3.3 1.5 5.1 c 0 5.3 -3.1 8.2 -8.5 8.2 Z m 0.3 -12.8 h -1.8 v 9 h 1.8 c 2.9 0 4 -1.8 4 -4.5 c 0 -2.5 -1.2 -4.5 -4 -4.5 Z" /></g></svg>